<?xml version="1.0" encoding="utf-8"?>

<!-- Uploaded to: SVG Repo, www.svgrepo.com, Generator: SVG Repo Mixer Tools -->
<svg fill="#000000" height="800px" width="800px" version="1.1" id="Icons" xmlns="http://www.w3.org/2000/svg" xmlns:xlink="http://www.w3.org/1999/xlink" 
	 viewBox="0 0 32 32" xml:space="preserve">
<g>
	<path d="M26,27c-1.7,0-3-1.3-3-3s1.3-3,3-3s3,1.3,3,3S27.7,27,26,27z"/>
</g>
<g>
	<path d="M10,27c-1.7,0-3-1.3-3-3s1.3-3,3-3s3,1.3,3,3S11.7,27,10,27z"/>
</g>
<path d="M31.8,17.4l-4-5C27.6,12.1,27.3,12,27,12h-5V9c0-0.6-0.4-1-1-1H5C4.4,8,4,8.4,4,9v1h1c0.6,0,1,0.4,1,1s-0.4,1-1,1H4H3
	c-0.6,0-1,0.4-1,1s0.4,1,1,1h1h2c0.6,0,1,0.4,1,1s-0.4,1-1,1H4H1c-0.6,0-1,0.4-1,1s0.4,1,1,1h3v6c0,0.6,0.4,1,1,1h0.1
	C5,24.7,5,24.3,5,24c0-2.8,2.2-5,5-5s5,2.2,5,5c0,0.3,0,0.7-0.1,1H21h0.1C21,24.7,21,24.3,21,24c0-2.8,2.2-5,5-5s5,2.2,5,5
	c0,0.3,0,0.7-0.1,1H31c0.6,0,1-0.4,1-1v-6C32,17.8,31.9,17.6,31.8,17.4z"/>
</svg>