<?xml version="1.0" encoding="UTF-8" standalone="no"?>
<!-- Created with Inkscape (http://www.inkscape.org/) -->

<svg
   width="48.075207mm"
   height="47.493896mm"
   viewBox="0 0 48.075207 47.493896"
   version="1.1"
   id="svg1"
   inkscape:export-filename="bitmap.png"
   inkscape:export-xdpi="96"
   inkscape:export-ydpi="96"
   inkscape:version="1.3.2 (091e20e, 2023-11-25, custom)"
   sodipodi:docname="logo.svg"
   xmlns:inkscape="http://www.inkscape.org/namespaces/inkscape"
   xmlns:sodipodi="http://sodipodi.sourceforge.net/DTD/sodipodi-0.dtd"
   xmlns="http://www.w3.org/2000/svg"
   xmlns:svg="http://www.w3.org/2000/svg">
  <sodipodi:namedview
     id="namedview1"
     pagecolor="#ffffff"
     bordercolor="#000000"
     borderopacity="0.25"
     inkscape:showpageshadow="2"
     inkscape:pageopacity="0.0"
     inkscape:pagecheckerboard="0"
     inkscape:deskcolor="#d1d1d1"
     inkscape:document-units="mm"
     inkscape:zoom="0.70110129"
     inkscape:cx="90.571792"
     inkscape:cy="89.145464"
     inkscape:window-width="1920"
     inkscape:window-height="1001"
     inkscape:window-x="-9"
     inkscape:window-y="-9"
     inkscape:window-maximized="1"
     inkscape:current-layer="layer1" />
  <defs
     id="defs1" />
  <g
     inkscape:label="Layer 1"
     inkscape:groupmode="layer"
     id="layer1"
     transform="translate(-80.962499,-124.88332)">
    <path
       style="fill:#000000"
       d="m 101.49082,171.719 c -1.749375,-0.91045 -1.775434,-1.04555 -1.775434,-9.20434 0,-8.4796 0.402544,-7.49171 -4.053209,-9.94695 -4.23535,-2.33379 -3.884292,-2.81428 -3.884292,5.31641 0,6.78479 -0.125932,7.90449 -0.889017,7.90449 -0.298015,0 -6.957282,-3.51096 -8.572395,-4.51961 -1.367058,-0.85374 -1.410318,-1.25734 -1.329273,-12.40152 l 0.07506,-10.32129 0.79375,-0.77899 c 1.24324,-1.22012 20.92392,-12.44174 22.36113,-12.74996 2.14327,-0.45965 3.25314,0.003 13.48991,5.62131 10.08095,5.53296 10.72813,5.99248 11.00082,7.81092 0.34806,2.321 0.83658,1.95475 -12.47618,9.35343 -9.83393,5.46528 -12.1668,6.8652 -12.23523,7.34219 -0.15588,1.08658 0.7678,0.65712 11.59934,-5.39308 12.52655,-6.99698 12.24917,-6.8606 12.81104,-6.29873 0.84723,0.84723 0.77225,0.91468 -4.0852,3.67495 -2.1357,1.21361 -3.87445,2.37325 -3.92216,2.61582 -0.19125,0.97238 0.83451,0.71077 3.88932,-0.99192 3.28439,-1.83066 3.74421,-1.98098 4.23834,-1.3856 0.57283,0.69023 -0.0369,1.21436 -3.95294,3.39785 -3.97786,2.21798 -4.51608,2.67202 -3.89896,3.28914 0.27934,0.27934 0.9414,0.005 3.62311,-1.50218 3.60094,-2.0236 3.83859,-2.09591 4.26567,-1.2979 0.42553,0.7951 0.16659,1.00947 -4.15086,3.4366 -3.91846,2.20283 -4.42141,2.64874 -3.7476,3.32255 0.337,0.337 0.80084,0.15287 3.71744,-1.47572 3.76768,-2.10381 3.46922,-1.99655 4.02078,-1.44499 1.6136,1.61361 0.0851,4.10398 -3.88298,6.32672 -4.31667,2.41796 -4.16791,2.26589 -4.16791,4.26089 0,1.90854 -0.23402,2.1084 -1.98438,1.69476 -2.06167,-0.48721 -2.23211,-0.40626 -4.49792,2.13638 -2.49207,2.79655 -3.33159,3.07191 -3.57551,1.17277 -0.16486,-1.28366 -0.16492,-1.28365 -3.15269,0.40062 -2.72425,1.53571 -3.70843,1.64629 -5.65157,0.63498 z m 5.87267,-5.73997 c 2.74874,-1.52533 3.28756,-2.06869 2.66616,-2.68863 -0.60707,-0.60565 -6.08093,2.4882 -6.08093,3.43697 0,0.9522 0.57895,0.82532 3.41477,-0.74834 z m 0.0415,-4.03627 c 2.82394,-1.58496 2.97648,-1.71597 2.73395,-2.34798 -0.23855,-0.62166 -0.4464,-0.55584 -3.29657,1.04384 -2.7658,1.55234 -3.02694,1.77527 -2.79314,2.38453 0.22851,0.59549 0.55998,0.48877 3.35576,-1.08039 z m -0.0167,-3.78711 c 2.00718,-1.11525 2.77813,-1.68273 2.77813,-2.04493 0,-0.87157 -0.73147,-0.69813 -3.51223,0.83279 -2.55101,1.40443 -3.12335,1.98903 -2.52909,2.58329 0.27907,0.27907 0.33703,0.25472 3.26319,-1.37115 z m -18.573052,-2.49404 c 0.074,-1.12939 0.0188,-1.25378 -0.727604,-1.63976 l -0.807675,-0.41766 v 1.44885 c 0,2.28235 1.389526,2.83315 1.535279,0.60857 z m -3.651946,-1.76425 c 0,-1.2459 -0.574171,-2.13167 -1.381788,-2.13167 -0.536596,0 -0.200516,2.58492 0.3896,2.99656 0.901976,0.62919 0.992188,0.55055 0.992188,-0.86489 z m 3.411366,-4.67921 c -0.911354,-1.09812 -1.294699,-0.9758 -1.294699,0.41312 0,1.17484 0.08186,1.36687 0.727604,1.70691 l 0.727604,0.38314 0.08231,-1.0557 c 0.04527,-0.58064 -0.064,-1.232 -0.242823,-1.44747 z m -3.411366,-0.71728 c 0,-1.33969 -0.497573,-2.02685 -1.467658,-2.02685 -1.03541,0 0.293579,3.25156 1.401512,3.42899 0.03638,0.006 0.06615,-0.62513 0.06615,-1.40214 z"
       id="path1" />
  </g>
</svg>
