<?xml version="1.0" encoding="iso-8859-1"?>
<!-- Uploaded to: SVG Repo, www.svgrepo.com, Generator: SVG Repo Mixer Tools -->
<svg fill="#7e3fcc" height="800px" width="800px" version="1.1" id="Layer_1" xmlns="http://www.w3.org/2000/svg" xmlns:xlink="http://www.w3.org/1999/xlink" 
	 viewBox="0 0 512 512" xml:space="preserve">
<g>
	<g>
		<path d="M377.181,376.303c-13.165,0.002-25.489-3.685-35.988-10.081c-10.499,6.396-22.823,10.083-35.99,10.083
			c-21.56,0-40.852-9.886-53.588-25.362l-57.617,15.698v-66.733l41.823-17.4l39.991-16.638
			c18.352-7.635,27.039-28.702,19.405-47.054c-7.635-18.352-28.702-27.039-47.054-19.405l-108.865,45.292
			c-22.133,9.208-36.555,30.827-36.555,54.8v57.282c0,85.722,69.492,155.214,155.214,155.214
			c82.493,0,149.944-64.358,154.909-145.603C402.433,372.681,390.224,376.303,377.181,376.303z"/>
	</g>
</g>
<g>
	<g>
		<path d="M170.451,30.93c-2.797-19.679-21.018-33.365-40.697-30.568C110.075,3.16,96.389,21.38,99.188,41.059l24.725,173.938
			c0.847-0.382,1.696-0.761,2.56-1.121l66.076-27.49L170.451,30.93z"/>
	</g>
</g>
<g>
	<g>
		<path d="M377.184,162.336c-19.877,0-35.99,16.114-35.99,35.99c0-19.877-16.114-35.99-35.99-35.99
			c-6.027,0-11.704,1.489-16.695,4.107l0.078-0.048L306.403,41.06c2.797-19.679-10.888-37.899-30.566-40.696
			c-19.679-2.797-37.899,10.888-40.696,30.568l-20.809,146.393l21.008-8.74c8.505-3.538,17.466-5.333,26.636-5.333
			c28.121,0,53.271,16.777,64.073,42.74c7.119,17.111,7.148,35.969,0.082,53.102c-7.066,17.133-20.38,30.489-37.491,37.608
			l-19.426,8.082v2.14c0,19.877,16.114,35.99,35.99,35.99c19.877,0,35.99-16.113,35.99-35.99c0,19.877,16.114,35.99,35.99,35.99
			s35.99-16.113,35.99-35.99V198.326C413.173,178.45,397.06,162.336,377.184,162.336z"/>
	</g>
</g>
</svg>